<svg xmlns="http://www.w3.org/2000/svg" viewBox="0 0 55 46.682">
  <defs>
    <style>
      .cls-1 {
        fill: #ad0000;
        font-size: 18px;
        font-family: PTSans-Bold, PT Sans;
        font-weight: 700;
      }

      .cls-2 {
        fill: #c60000;
        stroke: #c60000;
        stroke-width: 0.5px;
      }
    </style>
  </defs>
  <g id="Group_1" data-name="Group 1" transform="translate(-288 -102.318)">
    <text id="Urgent" class="cls-1" transform="translate(288 128)"><tspan x="0.771" y="16">Urgent</tspan></text>
    <g id="alarm" transform="translate(302.275 102.568)">
      <g id="Group_9" data-name="Group 9" transform="translate(4.524 6.967)">
        <g id="Group_8" data-name="Group 8">
          <path id="Path_21" data-name="Path 21" class="cls-2" d="M108.45,162.83l-1.227-3.531a.488.488,0,0,0-.463-.324h-.071v-6.92a6.216,6.216,0,0,0-12.428,0v6.92H94.19a.488.488,0,0,0-.463.324L92.5,162.83a.467.467,0,0,0,.066.431.493.493,0,0,0,.4.2h15.024a.493.493,0,0,0,.4-.2A.467.467,0,0,0,108.45,162.83ZM95.24,152.055a5.237,5.237,0,0,1,10.471,0v6.92H95.24Zm-1.594,10.451.9-2.577h11.869l.9,2.577Z" transform="translate(-92.474 -145.995)"/>
        </g>
      </g>
      <g id="Group_11" data-name="Group 11" transform="translate(12.036)">
        <g id="Group_10" data-name="Group 10">
          <path id="Path_22" data-name="Path 22" class="cls-2" d="M246.489,0A.483.483,0,0,0,246,.477V3.34a.489.489,0,0,0,.979,0V.477A.483.483,0,0,0,246.489,0Z" transform="translate(-246)"/>
        </g>
      </g>
      <g id="Group_13" data-name="Group 13" transform="translate(12.036 4.722)">
        <g id="Group_12" data-name="Group 12">
          <path id="Path_23" data-name="Path 23" class="cls-2" d="M246.835,99.1a.5.5,0,0,0-.692,0,.469.469,0,0,0,0,.675.5.5,0,0,0,.692,0,.469.469,0,0,0,0-.675Z" transform="translate(-246 -98.964)"/>
        </g>
      </g>
      <g id="Group_15" data-name="Group 15" transform="translate(1.937 12.772)">
        <g id="Group_14" data-name="Group 14">
          <path id="Path_24" data-name="Path 24" class="cls-2" d="M42.323,267.66H40.076a.477.477,0,1,0,0,.954h2.247a.477.477,0,1,0,0-.954Z" transform="translate(-39.587 -267.66)"/>
        </g>
      </g>
      <g id="Group_17" data-name="Group 17" transform="translate(0 12.772)">
        <g id="Group_16" data-name="Group 16" transform="translate(0)">
          <path id="Path_25" data-name="Path 25" class="cls-2" d="M.842,267.8a.5.5,0,0,0-.692,0,.469.469,0,0,0,0,.675.5.5,0,0,0,.692,0,.468.468,0,0,0,0-.675Z" transform="translate(-0.007 -267.66)"/>
        </g>
      </g>
      <g id="Group_19" data-name="Group 19" transform="translate(7.627 2.39)">
        <g id="Group_18" data-name="Group 18">
          <path id="Path_26" data-name="Path 26" class="cls-2" d="M157.482,51.949l-.663-1.561a.494.494,0,0,0-.639-.258.473.473,0,0,0-.265.623l.663,1.561a.49.49,0,0,0,.452.295.5.5,0,0,0,.187-.036A.473.473,0,0,0,157.482,51.949Z" transform="translate(-155.877 -50.093)"/>
        </g>
      </g>
      <g id="Group_21" data-name="Group 21" transform="translate(1.391 8.472)">
        <g id="Group_20" data-name="Group 20">
          <path id="Path_27" data-name="Path 27" class="cls-2" d="M30.708,178.223l-1.6-.647a.494.494,0,0,0-.639.258.473.473,0,0,0,.265.623l1.6.647a.5.5,0,0,0,.187.036.49.49,0,0,0,.452-.295A.473.473,0,0,0,30.708,178.223Z" transform="translate(-28.43 -177.54)"/>
        </g>
      </g>
      <g id="Group_23" data-name="Group 23" transform="translate(20.093 12.772)">
        <g id="Group_22" data-name="Group 22">
          <path id="Path_28" data-name="Path 28" class="cls-2" d="M413.4,267.66h-2.247a.477.477,0,1,0,0,.954H413.4a.477.477,0,1,0,0-.954Z" transform="translate(-410.662 -267.66)"/>
        </g>
      </g>
      <g id="Group_25" data-name="Group 25" transform="translate(24.073 12.772)">
        <g id="Group_24" data-name="Group 24">
          <path id="Path_29" data-name="Path 29" class="cls-2" d="M492.828,267.8a.5.5,0,0,0-.692,0,.468.468,0,0,0,0,.675.5.5,0,0,0,.692,0,.468.468,0,0,0,0-.675Z" transform="translate(-491.993 -267.66)"/>
        </g>
      </g>
      <g id="Group_27" data-name="Group 27" transform="translate(18.959 3.673)">
        <g id="Group_26" data-name="Group 26">
          <path id="Path_30" data-name="Path 30" class="cls-2" d="M390.716,77.121a.5.5,0,0,0-.692,0l-2.408,2.348a.469.469,0,0,0,0,.675.5.5,0,0,0,.692,0l2.408-2.348A.469.469,0,0,0,390.716,77.121Z" transform="translate(-387.473 -76.981)"/>
        </g>
      </g>
      <g id="Group_29" data-name="Group 29" transform="translate(2.707 3.674)">
        <g id="Group_28" data-name="Group 28">
          <path id="Path_31" data-name="Path 31" class="cls-2" d="M58.564,79.471l-2.407-2.348a.5.5,0,0,0-.692,0,.469.469,0,0,0,0,.675l2.408,2.348a.5.5,0,0,0,.692,0A.469.469,0,0,0,58.564,79.471Z" transform="translate(-55.321 -76.983)"/>
        </g>
      </g>
      <g id="Group_31" data-name="Group 31" transform="translate(15.783 2.39)">
        <g id="Group_30" data-name="Group 30">
          <path id="Path_32" data-name="Path 32" class="cls-2" d="M323.9,50.13a.494.494,0,0,0-.639.258L322.6,51.95a.473.473,0,0,0,.265.623.5.5,0,0,0,.187.036.49.49,0,0,0,.452-.295l.663-1.561A.473.473,0,0,0,323.9,50.13Z" transform="translate(-322.561 -50.094)"/>
        </g>
      </g>
      <g id="Group_33" data-name="Group 33" transform="translate(21.081 8.472)">
        <g id="Group_32" data-name="Group 32">
          <path id="Path_33" data-name="Path 33" class="cls-2" d="M433.385,177.833a.494.494,0,0,0-.639-.258l-1.6.647a.473.473,0,0,0-.265.623.49.49,0,0,0,.452.295.5.5,0,0,0,.187-.036l1.6-.647A.473.473,0,0,0,433.385,177.833Z" transform="translate(-430.842 -177.539)"/>
        </g>
      </g>
      <g id="Group_35" data-name="Group 35" transform="translate(11.058 9.974)">
        <g id="Group_34" data-name="Group 34">
          <path id="Path_34" data-name="Path 34" class="cls-2" d="M227.469,209.008A1.452,1.452,0,0,0,226,210.439v2.29a1.468,1.468,0,0,0,2.936,0v-2.29A1.452,1.452,0,0,0,227.469,209.008Zm.489,3.722a.489.489,0,0,1-.979,0v-2.29a.489.489,0,0,1,.979,0Z" transform="translate(-226.001 -209.008)"/>
        </g>
      </g>
      <g id="Group_37" data-name="Group 37" transform="translate(11.058 16.081)">
        <g id="Group_36" data-name="Group 36">
          <path id="Path_35" data-name="Path 35" class="cls-2" d="M227.469,337.005a1.432,1.432,0,1,0,1.468,1.432A1.452,1.452,0,0,0,227.469,337.005Zm0,1.909a.477.477,0,1,1,.489-.477A.484.484,0,0,1,227.469,338.914Z" transform="translate(-226.001 -337.005)"/>
        </g>
      </g>
    </g>
  </g>
</svg>
