<svg xmlns="http://www.w3.org/2000/svg" viewBox="0 0 68 48.5">
  <defs>
    <style>
      .cls-1, .cls-2 {
        fill: #ffda44;
      }

      .cls-1 {
        stroke: rgba(112,112,112,0);
      }

      .cls-2 {
        font-size: 18px;
        font-family: SegoeUI-Bold, Segoe UI;
        font-weight: 700;
      }
    </style>
  </defs>
  <g id="backup" transform="translate(-287 -104.5)">
    <g id="server" transform="translate(306 105)">
      <g id="Group_39" data-name="Group 39">
        <g id="Group_38" data-name="Group 38">
          <path id="Path_36" data-name="Path 36" class="cls-1" d="M242.168,234.667a.682.682,0,0,0-.481,1.165l1.363,1.363a.682.682,0,0,0,.482.2.662.662,0,0,0,.1-.007.683.683,0,0,0,.5-.345l.312-.564a6.13,6.13,0,1,1-4.726.07.682.682,0,1,0-.547-1.249,7.489,7.489,0,1,0,3-.632Z" transform="translate(-219.668 -219.667)"/>
          <path id="Path_37" data-name="Path 37" class="cls-1" d="M342.015,277.333a.681.681,0,0,0-.682.682v4.091a.681.681,0,0,0,.2.482l2.045,2.045a.682.682,0,0,0,.964-.964l-1.846-1.846v-3.809A.681.681,0,0,0,342.015,277.333Z" transform="translate(-319.515 -259.606)"/>
          <path id="Path_38" data-name="Path 38" class="cls-1" d="M2.045,13.636H22.5a2.048,2.048,0,0,0,2.045-2.045V8.864a2.033,2.033,0,0,0-.731-1.554l-5.44-6.154A3.463,3.463,0,0,0,15.774,0h-7a3.463,3.463,0,0,0-2.6,1.155L.731,7.31A2.033,2.033,0,0,0,0,8.864v2.727A2.048,2.048,0,0,0,2.045,13.636Zm4.773-2.727a.682.682,0,0,1-1.364,0V9.546a.682.682,0,0,1,1.364,0Zm2.727,0a.682.682,0,1,1-1.364,0V9.546a.682.682,0,0,1,1.364,0v1.364Zm6.818.682a1.364,1.364,0,1,1,1.364-1.364A1.365,1.365,0,0,1,16.364,11.591Zm5.455-1.364a1.364,1.364,0,1,1-1.364-1.364A1.365,1.365,0,0,1,21.818,10.227ZM8.236,2.892a.712.712,0,0,1,.535-.232h7a.71.71,0,0,1,.534.232l3.476,3.926H4.766ZM2.727,9.545a.682.682,0,0,1,1.364,0v1.364a.682.682,0,0,1-1.364,0Z"/>
          <path id="Path_39" data-name="Path 39" class="cls-1" d="M16.337,235.838a.682.682,0,0,0-.475-1.171H2.045A2.048,2.048,0,0,0,0,236.712v2.727a2.048,2.048,0,0,0,2.045,2.045h11.01a.681.681,0,0,0,.674-.585A8.9,8.9,0,0,1,16.337,235.838Zm-12.246,2.92a.682.682,0,0,1-1.364,0v-1.364a.682.682,0,0,1,1.364,0Zm2.727,0a.682.682,0,0,1-1.364,0v-1.364a.682.682,0,0,1,1.364,0Zm2.727,0a.682.682,0,1,1-1.364,0v-1.364a.682.682,0,0,1,1.364,0v1.364Z" transform="translate(0 -219.667)"/>
        </g>
      </g>
    </g>
    <text id="Backup-2" data-name="Backup" class="cls-2" transform="translate(287 129)"><tspan x="3.01" y="19">Backup</tspan></text>
  </g>
</svg>
