<?xml version="1.0" encoding="iso-8859-1"?>
<!-- Generator: Adobe Illustrator 19.0.0, SVG Export Plug-In . SVG Version: 6.00 Build 0)  -->
<svg version="1.1" id="Capa_1" xmlns="http://www.w3.org/2000/svg" xmlns:xlink="http://www.w3.org/1999/xlink" x="0px" y="0px"
	 viewBox="0 0 512 512" style="enable-background:new 0 0 512 512;" xml:space="preserve">
<g>
	<path style="fill:#FF5352;" d="M117.766,60.24L24.755,207.508c-46.264,73.252,6.373,168.752,93.011,168.752
		s139.276-95.502,93.011-168.752L117.766,60.24z"/>
	<path style="fill:#FF5352;" d="M394.233,60.24l-93.011,147.268c-46.264,73.252,6.373,168.752,93.011,168.752
		s139.276-95.502,93.011-168.752L394.233,60.24z"/>
</g>
<g>
	<path style="fill:#F23030;" d="M227.475,256.034c-4.727,50.618-44.686,95.48-100.727,99.841l64.321-64.57
		c10.895-10.939,16.881-25.465,16.851-40.904c-0.03-15.439-6.071-29.943-17.008-40.837c-10.907-10.866-25.394-16.851-40.791-16.851
		c-11.708,0-22.878,3.454-32.354,9.882c-9.475-6.428-20.646-9.882-32.354-9.882c-15.397,0-29.884,5.985-40.79,16.85
		c-10.938,10.895-16.979,25.398-17.009,40.838c-0.03,15.439,5.954,29.966,16.851,40.903l64.321,64.571
		c-56.042-4.361-96-49.223-100.727-99.841C2.385,317,49.518,376.262,117.767,376.262
		C186.014,376.262,233.149,316.999,227.475,256.034z"/>
	<path style="fill:#F23030;" d="M503.943,256.034c-4.727,50.618-44.686,95.48-100.727,99.841l64.321-64.57
		c10.895-10.939,16.881-25.465,16.85-40.904c-0.03-15.439-6.071-29.943-17.008-40.837c-10.907-10.866-25.394-16.851-40.791-16.851
		c-11.708,0-22.878,3.454-32.354,9.882c-9.475-6.428-20.646-9.882-32.354-9.882c-15.397,0-29.884,5.985-40.79,16.85
		c-10.939,10.895-16.979,25.398-17.009,40.838c-0.03,15.439,5.954,29.966,16.85,40.903l64.321,64.571
		c-56.042-4.361-96-49.223-100.727-99.841c-5.674,60.965,41.46,120.227,109.709,120.227
		C462.482,376.262,509.617,316.999,503.943,256.034z"/>
</g>
<g>
	<path style="fill:#F8BBD0;" d="M117.766,336.505l-59.109-59.338c-14.72-14.777-14.674-38.689,0.104-53.409
		c14.776-14.72,38.688-14.674,53.408,0.103l5.596,5.618l5.596-5.618c14.719-14.777,38.632-14.823,53.408-0.103
		c14.777,14.72,14.824,38.631,0.104,53.409L117.766,336.505z"/>
	<path style="fill:#F8BBD0;" d="M394.233,336.505l-59.109-59.338c-14.72-14.777-14.674-38.689,0.104-53.409
		c14.776-14.72,38.688-14.674,53.408,0.103l5.596,5.618l5.596-5.618c14.719-14.777,38.632-14.823,53.408-0.103
		c14.777,14.72,14.824,38.631,0.104,53.409L394.233,336.505z"/>
</g>
<g>
	<path style="fill:#F48FB1;" d="M176.875,251.122l-59.109,59.339l-59.109-59.339c-3.981-3.996-6.872-8.663-8.693-13.632
		c-4.898,13.359-2.01,28.931,8.693,39.676l59.109,59.339l59.109-59.339c10.703-10.745,13.591-26.318,8.693-39.676
		C183.746,242.459,180.856,247.126,176.875,251.122z"/>
	<path style="fill:#F48FB1;" d="M453.342,251.122l-59.109,59.339l-59.109-59.339c-3.981-3.996-6.872-8.663-8.693-13.632
		c-4.898,13.359-2.01,28.931,8.693,39.676l59.109,59.339l59.109-59.339c10.703-10.745,13.591-26.318,8.693-39.676
		C460.214,242.459,457.323,247.126,453.342,251.122z"/>
</g>
<path d="M220.69,322.98c20.98-38.066,19.65-82.733-3.561-119.482L117.766,46.171L18.403,203.498
	c-23.21,36.75-24.542,81.416-3.561,119.482c20.981,38.067,59.458,60.794,102.924,60.794S199.708,361.047,220.69,322.98z
	 M117.766,368.749c-37.909,0-71.466-19.821-89.765-53.022c-18.299-33.2-17.138-72.155,3.105-104.206l86.66-137.211l86.66,137.211
	c20.243,32.051,21.404,71.007,3.105,104.206C189.232,348.929,155.675,368.749,117.766,368.749z"/>
<path d="M150.122,205.234c-0.03,0-0.061,0-0.09,0c-12.094,0.023-23.456,4.756-31.991,13.325l-0.273,0.274l-0.273-0.274
	c-8.535-8.569-19.897-13.3-31.991-13.325c-0.03,0-0.06,0-0.09,0c-12.06,0-23.406,4.686-31.951,13.2
	c-8.568,8.535-13.3,19.896-13.325,31.991c-0.024,12.095,4.665,23.475,13.2,32.042l64.431,64.681l64.431-64.681
	c8.535-8.568,13.223-19.948,13.2-32.042c-0.023-12.094-4.756-23.456-13.325-31.991C173.526,209.92,162.182,205.234,150.122,205.234z
	 M171.552,271.864l-53.786,53.995L63.98,271.864c-5.703-5.726-8.835-13.329-8.82-21.409c0.015-8.081,3.177-15.673,8.903-21.375
	c5.711-5.69,13.289-8.82,21.348-8.82c0.02,0,0.041,0,0.06,0c8.081,0.016,15.673,3.177,21.375,8.903l10.918,10.961l10.918-10.961
	c5.703-5.726,13.294-8.887,21.375-8.903c0.021,0,0.041,0,0.061,0c8.059,0,15.637,3.131,21.349,8.82
	c5.726,5.703,8.887,13.293,8.903,21.375C180.388,258.537,177.255,266.139,171.552,271.864z"/>
<path d="M426.589,205.234c-0.03,0-0.061,0-0.09,0c-12.094,0.023-23.456,4.756-31.991,13.325l-0.273,0.274l-0.273-0.274
	c-8.535-8.569-19.897-13.3-31.991-13.325c-0.03,0-0.06,0-0.09,0c-12.06,0-23.406,4.686-31.951,13.2
	c-8.568,8.535-13.301,19.896-13.325,31.991c-0.024,12.095,4.665,23.475,13.2,32.042l64.431,64.681l64.431-64.681
	c8.535-8.568,13.223-19.948,13.2-32.042c-0.023-12.094-4.756-23.456-13.325-31.991C449.994,209.92,438.65,205.234,426.589,205.234z
	 M448.019,271.864l-53.786,53.995l-53.786-53.995c-5.703-5.726-8.835-13.329-8.82-21.409c0.015-8.081,3.177-15.673,8.903-21.375
	c5.711-5.69,13.289-8.82,21.348-8.82c0.02,0,0.041,0,0.06,0c8.081,0.016,15.673,3.177,21.375,8.903l10.918,10.961l10.918-10.961
	c5.703-5.726,13.294-8.887,21.375-8.903c0.021,0,0.041,0,0.061,0c8.059,0,15.637,3.131,21.349,8.82
	c5.726,5.703,8.887,13.293,8.903,21.375C456.855,258.537,453.723,266.139,448.019,271.864z"/>
<path d="M493.597,203.498L394.233,46.171L294.87,203.498c-23.21,36.75-24.542,81.416-3.561,119.482
	c20.982,38.067,59.458,60.794,102.924,60.794s81.943-22.726,102.924-60.794C518.138,284.913,516.808,240.247,493.597,203.498z
	 M483.998,315.727c-18.299,33.201-51.856,53.022-89.765,53.022s-71.466-19.821-89.765-53.022
	c-18.299-33.2-17.138-72.155,3.105-104.206l86.66-137.211l86.66,137.211C501.136,243.572,502.296,282.527,483.998,315.727z"/>
<path d="M256,436.864c-20.233,0-40.045-3.464-58.886-10.296l-5.123,14.126c20.488,7.43,42.023,11.197,64.008,11.197
	c30.753,0,60.615-7.408,87.458-21.569l-10.429,30.671l14.225,4.836l24.25-71.321l-18.555,12.604
	C324.295,426.575,290.77,436.864,256,436.864z"/>
<path d="M163.59,427.608c4.529,2.566,9.215,4.967,13.927,7.138l6.286-13.648c-4.333-1.995-8.642-4.203-12.808-6.563L163.59,427.608z
	"/>
<path d="M137.763,409.993c4.03,3.271,8.251,6.413,12.545,9.344l8.469-12.412c-3.954-2.698-7.839-5.591-11.55-8.601L137.763,409.993z
	"/>
<path d="M336.171,94.191c-4.694-2.22-9.543-4.269-14.414-6.091l-5.266,14.073c4.481,1.677,8.94,3.562,13.257,5.602L336.171,94.191z"
	/>
<path d="M256,91.28c6.2,0,12.45,0.333,18.574,0.987l1.599-14.939c-6.654-0.712-13.441-1.073-20.173-1.073
	c-16.854,0-33.417,2.209-49.454,6.583l14.983-27.534l-13.198-7.182l-33.837,62.183l19.11-7.408
	C213.495,95.188,234.487,91.28,256,91.28z"/>
<path d="M306.88,83.236c-5.004-1.405-10.128-2.615-15.231-3.598l-2.839,14.755c4.692,0.902,9.404,2.015,14.006,3.309L306.88,83.236z
	"/>
<g>
	<path style="fill:#FFFFFF;" d="M81.045,188.728l-12.704-8.024L76.364,168l12.704,8.024L81.045,188.728z M97.092,163.321
		l-12.704-8.024l33.378-52.849l24.576,38.912l-12.704,8.024l-11.872-18.798L97.092,163.321z"/>
	<path style="fill:#FFFFFF;" d="M65.675,336.713c-7.366-5.476-13.825-12.114-19.195-19.729l12.28-8.66
		c4.451,6.312,9.794,11.806,15.881,16.332L65.675,336.713z"/>
	<path style="fill:#FFFFFF;" d="M112.444,299.225L101.84,288.58l10.645-10.604l10.604,10.645L112.444,299.225z M91.236,277.935
		L74.625,261.26l10.645-10.604l16.611,16.675L91.236,277.935z"/>
	<path style="fill:#FFFFFF;" d="M394.233,304.569l-23.584-23.676l10.645-10.604l12.939,12.99l11.289-11.332l10.645,10.604
		L394.233,304.569z M426.771,271.905l-10.645-10.604l10.604-10.645l10.645,10.604L426.771,271.905z"/>
	<path style="fill:#FFFFFF;" d="M430.955,188.728l-8.024-12.704L435.636,168l8.024,12.704L430.955,188.728z M414.907,163.321
		l-8.024-12.704l12.704-8.024l8.024,12.704L414.907,163.321z M398.86,137.912l-10.979-17.383l12.704-8.024l10.979,17.383
		L398.86,137.912z"/>
	
		<rect x="352.993" y="155.111" transform="matrix(-0.8455 -0.534 0.534 -0.8455 574.5722 506.0944)" style="fill:#FFFFFF;" width="15.026" height="29.619"/>
	<path style="fill:#FFFFFF;" d="M345.239,338.911c-6.655-4.502-12.668-9.944-17.874-16.174l11.53-9.633
		c4.305,5.154,9.273,9.649,14.763,13.364L345.239,338.911z"/>
	<path style="fill:#FFFFFF;" d="M451.234,332.776l-9.825-11.369c6.519-5.633,11.993-12.423,16.271-20.184l13.159,7.252
		C465.7,317.799,459.104,325.975,451.234,332.776z"/>
</g>
<g>
</g>
<g>
</g>
<g>
</g>
<g>
</g>
<g>
</g>
<g>
</g>
<g>
</g>
<g>
</g>
<g>
</g>
<g>
</g>
<g>
</g>
<g>
</g>
<g>
</g>
<g>
</g>
<g>
</g>
</svg>
