<svg xmlns="http://www.w3.org/2000/svg" viewBox="0 0 22 26.769">
  <defs>
    <style>
      .cls-1 {
        fill: #fff;
      }
    </style>
  </defs>
  <g id="writing" transform="translate(0)">
    <g id="Group_7" data-name="Group 7">
      <g id="Group_6" data-name="Group 6">
        <path id="Path_16" data-name="Path 16" class="cls-1" d="M118.253,201.046a1,1,0,0,0-.959-1.046h-9.877a1.05,1.05,0,0,0,0,2.091h9.877A1,1,0,0,0,118.253,201.046Z" transform="translate(-102.629 -189.543)"/>
        <path id="Path_17" data-name="Path 17" class="cls-1" d="M107.418,280a1.05,1.05,0,0,0,0,2.091h6a1.05,1.05,0,0,0,0-2.091Z" transform="translate(-102.629 -265.361)"/>
        <path id="Path_18" data-name="Path 18" class="cls-1" d="M33.613,24.678H30.406a2.012,2.012,0,0,1-1.918-2.091V4.183a2.012,2.012,0,0,1,1.918-2.091H42.195a2.013,2.013,0,0,1,1.918,2.091v6.431a.962.962,0,1,0,1.918,0V4.183A4.025,4.025,0,0,0,42.195,0H30.406A4.025,4.025,0,0,0,26.57,4.183v18.4a4.025,4.025,0,0,0,3.836,4.183h3.207a1.05,1.05,0,0,0,0-2.091Z" transform="translate(-26.57)"/>
        <path id="Path_19" data-name="Path 19" class="cls-1" d="M254.217,272.942a2.714,2.714,0,0,0-4.067,0l-5.264,5.728a1.068,1.068,0,0,0-.24.436l-1.146,4.116a1.114,1.114,0,0,0,.231,1.034.921.921,0,0,0,.686.315.883.883,0,0,0,.256-.038l3.87-1.169a.944.944,0,0,0,.421-.268l5.253-5.718A3.345,3.345,0,0,0,254.217,272.942Zm-6.43,8.48-1.947.588.57-2.046,3.552-3.865,1.356,1.479Zm5.074-5.523-.186.2-1.356-1.479.185-.2a.9.9,0,0,1,1.356,0A1.115,1.115,0,0,1,252.862,275.9Z" transform="translate(-233.058 -257.802)"/>
        <path id="Path_20" data-name="Path 20" class="cls-1" d="M117.295,120h-9.877a1.05,1.05,0,0,0,0,2.091h9.877a1.05,1.05,0,0,0,0-2.091Z" transform="translate(-102.629 -113.726)"/>
      </g>
    </g>
  </g>
</svg>
