<svg xmlns="http://www.w3.org/2000/svg" viewBox="0 0 59 49.186">
  <defs>
    <style>
      .cls-1, .cls-2 {
        fill: #75c574;
      }

      .cls-1 {
        font-size: 18px;
        font-family: PTSans-Bold, PT Sans;
        font-weight: 700;
      }
    </style>
  </defs>
  <g id="Group_1" data-name="Group 1" transform="translate(-286 -100.814)">
    <text id="Ready" class="cls-1" transform="translate(286 129)"><tspan x="6.325" y="16">Ready</tspan></text>
    <g id="blood_2_" data-name="blood (2)" transform="translate(305 100.814)">
      <path id="Path_49" data-name="Path 49" class="cls-2" d="M95.917,211a6.2,6.2,0,1,0,5.917,6.193A6.067,6.067,0,0,0,95.917,211Zm-.845,10.1-3.133-3.279,1.2-1.251,1.938,2.029,3.629-3.8,1.2,1.251Zm0,0" transform="translate(-84.928 -198.556)"/>
      <path id="Path_50" data-name="Path 50" class="cls-2" d="M20.011,12.072a10.871,10.871,0,0,0-.9-1.161L10.988,0,2.895,10.87a11.433,11.433,0,0,0-.929,1.2A11.8,11.8,0,0,0,0,18.637C0,24.978,4.93,30.2,10.988,30.2s10.988-5.218,10.988-11.56A11.8,11.8,0,0,0,20.011,12.072ZM10.988,26.6a7.8,7.8,0,0,1-7.607-7.962,7.8,7.8,0,0,1,7.607-7.962A7.8,7.8,0,0,1,18.6,18.637,7.8,7.8,0,0,1,10.988,26.6Zm0,0"/>
    </g>
  </g>
</svg>
