<svg xmlns="http://www.w3.org/2000/svg" viewBox="0 0 104.792 102.97">
  <defs>
    <style>
      .cls-1 {
        fill: #91dc5a;
      }
    </style>
  </defs>
  <g id="speech-bubble" transform="translate(-0.003)">
    <path id="Path_15" data-name="Path 15" class="cls-1" d="M89.435,15.087a53.026,53.026,0,0,0-74.092,0,50.853,50.853,0,0,0-2.2,70.513l.544.428C11.706,90.222,8.309,95.4,2.908,98.012a1.989,1.989,0,0,0,.588,3.766,30.228,30.228,0,0,0,22.28-5.971l.109.086a53.127,53.127,0,0,0,63.594-8A50.865,50.865,0,0,0,89.435,15.087ZM69.66,73.509c-1.154,1.156-2.374,2.226-3.463,3.424a6.888,6.888,0,0,1-5.859,2.183,24.447,24.447,0,0,1-9.321-2.675A50.55,50.55,0,0,1,34.182,63.494a45.545,45.545,0,0,1-8.211-13.439,17.357,17.357,0,0,1-1.372-7.49,6.119,6.119,0,0,1,1.938-4.109c1.307-1.22,2.526-2.482,3.811-3.724a3.664,3.664,0,0,1,5.445,0c1.045,1.006,2.047,2.012,3.071,3.017,1,.984,2,1.947,2.984,2.932a3.524,3.524,0,0,1,0,5.478c-1.241,1.241-2.483,2.482-3.768,3.681a.756.756,0,0,0-.2.984,21.546,21.546,0,0,0,3.4,5.35,38.5,38.5,0,0,0,9.517,8.5c.784.492,1.655.835,2.483,1.284a.754.754,0,0,0,1.045-.193c1.241-1.263,2.526-2.5,3.79-3.745a3.624,3.624,0,0,1,5.423,0c2.047,1.99,4.073,3.98,6.1,5.992A3.561,3.561,0,0,1,69.66,73.509ZM50.342,40.253,51,35.674a20.81,20.81,0,0,1,11.826,5.8,20.1,20.1,0,0,1,5.793,10.978l-4.639.792a15.624,15.624,0,0,0-4.486-8.5A16.023,16.023,0,0,0,50.342,40.253Zm25.852,12.2A29.05,29.05,0,0,0,67.9,36.7a29.843,29.843,0,0,0-16.944-8.3l.653-4.58a34.371,34.371,0,0,1,19.6,9.609,33.624,33.624,0,0,1,9.626,18.233Z" transform="translate(0 0)"/>
  </g>
</svg>
