<?xml version="1.0" encoding="utf-8"?>
<!-- Generator: Adobe Illustrator 21.1.0, SVG Export Plug-In . SVG Version: 6.00 Build 0)  -->
<svg version="1.1" id="Layer_1" xmlns="http://www.w3.org/2000/svg" xmlns:xlink="http://www.w3.org/1999/xlink" x="0px" y="0px"
	 viewBox="0 0 222 223" style="enable-background:new 0 0 222 223;" xml:space="preserve">
<style type="text/css">
	.unknown0{fill:#B3B3B3;}
	.unknown1{fill:#E8EDEF;}
	.unknown2{fill:#335262;}
	.unknown3{fill:#5A7A84;}
</style>
<g>
	<title>Unknown2</title>
	<g id="Oval">
		<circle class="unknown0" fill="#B3B3B3" cx="111" cy="107" r="97"/>
		<path class="unknown1" fill="#E8EDEF" d="M111,13c51.9,0,94,42.1,94,94s-42.1,94-94,94s-94-42.1-94-94S59.1,13,111,13 M111,7C55.9,7,11,51.9,11,107
			s44.9,100,100,100s100-44.9,100-100S166.1,7,111,7L111,7z"/>
	</g>
	<path class="unknown2" fill="#335262" d="M173.7,157.6l-43.3-19v-32.7H91.1v32.7l-0.4,0.2l-42.9,18.8c-3.7,1.6-7,5.9-8.5,10
		C39,168.4,65.5,201,110.6,201c46.8,0,71.9-31.7,71.7-32.8C181.1,163.7,177.8,159.4,173.7,157.6z"/>
	<path class="unknown3" fill="#5A7A84" d="M110.8,125.5c-19.9,0-36-16.1-36-36v-13c0-19.9,16.1-36,36-36s36,16.1,36,36l0,0v13.1
		C146.8,109.4,130.6,125.5,110.8,125.5z"/>
</g>
</svg>
